Note: This torrent contains both a DVD ISO and an MP4 Video of the concert so I suggest you select whichever you prefer.


BBC Proms 2011, Number 38, Film Music
Broadcast on BBC4 on 12 August 
Thanks to GringoLoco & the BBC  

Herrmann:
Music from The Man Who Knew Too Much, Citizen Kane, and Psycho (18 mins)

Ennio Morricone:
Cinema Paradiso - theme (7 mins)

Walton:
Henry V - suite (arr. Muir Mathieson) (21 mins)
Rory Kinnear: narrator

John Williams:
Music from Star Wars, Schindler's List and Harry Potter (14 mins)

Jonny Greenwood:
Norwegian Wood - suite (arr. Robert Ziegler) (10 mins)

BBC Commission, World Premiere
Sir Richard Rodney Bennett:
Murder on the Orient Express - suite (8 mins)

Barry:
Out of Africa - Love Theme (7 mins)

Various:
Music from the James Bond films (10 mins)

Encore - Morricone: The good, the bad and the ugly

Chloë Hanslip: violin
BBC Concert Orchestra
Keith Lockhart: conductor

*********************************************************

Format: DVD PAL ISO 16:9
Runtime: 1:57 (Interval cut)

Video
ID                               : 224 (0xE0)
Format                           : MPEG Video
Format version                   : Version 2
Format profile                   : Main@Main
Format settings, BVOP            : Yes
Format settings, Matrix          : Default
Bit rate mode                    : Variable
Bit rate                         : 3 487 Kbps
Nominal bit rate                 : 9 544 Kbps
Width                            : 720 pixels
Height                           : 576 pixels
Display aspect ratio             : 16:9
Frame rate                       : 25.000 fps
Standard                         : PAL
Color space                      : YUV
Chroma subsampling               : 4:2:0
Bit depth                        : 8 bits
Scan type                        : Interlaced
Scan order                       : Top Field First
Compression mode                 : Lossy
Bits/(Pixel*Frame)               : 0.336

Audio
ID                               : 192 (0xC0)
Format                           : MPEG Audio
Format version                   : Version 1
Format profile                   : Layer 2
Bit rate mode                    : Constant
Bit rate                         : 256 Kbps
Channel(s)                       : 2 channels
Sampling rate                    : 48.0 KHz
Compression mode                 : Lossy

******************************************************

Format: MP4 468p
Runtime: 2:11

Format                           : MPEG-4
Format profile                   : Base Media
Codec ID                         : isom
File size                        : 1.38 GiB
Duration                         : 2h 11mn
Overall bit rate                 : 1 503 Kbps
Writing application              : Lavf52.93.0

Video
ID                               : 1
Format                           : AVC
Format/Info                      : Advanced Video Codec
Format profile                   : Main@L3.0
Format settings, CABAC           : Yes
Format settings, ReFrames        : 4 frames
Codec ID                         : avc1
Codec ID/Info                    : Advanced Video Coding
Duration                         : 2h 11mn
Bit rate mode                    : Constant
Bit rate                         : 1 404 Kbps
Width                            : 832 pixels
Height                           : 468 pixels
Display aspect ratio             : 16:9
Frame rate mode                  : Constant
Frame rate                       : 25.000 fps
Standard                         : PAL
Color space                      : YUV
Chroma subsampling               : 4:2:0
Bit depth                        : 8 bits
Scan type                        : Progressive
Bits/(Pixel*Frame)               : 0.144
Stream size                      : 1.28 GiB (93%)

Audio
ID                               : 2
Format                           : AAC
Format/Info                      : Advanced Audio Codec
Format profile                   : HE-AAC / LC
Codec ID                         : 40
Duration                         : 2h 11mn
Bit rate mode                    : Variable
Bit rate                         : 96.0 Kbps
Channel(s)                       : 2 channels
Channel positions                : Front: L R
Sampling rate                    : 48.0 KHz / 24.0 KHz
Compression mode                 : Lossy
Stream size                      : 88.9 MiB (6%)
